<?xml version="1.0" encoding="iso-8859-1"?>
<!-- Generator: Adobe Illustrator 18.0.0, SVG Export Plug-In . SVG Version: 6.00 Build 0)  -->
<!DOCTYPE svg PUBLIC "-//W3C//DTD SVG 1.1//EN" "http://www.w3.org/Graphics/SVG/1.1/DTD/svg11.dtd">
<svg version="1.1" id="Capa_1" xmlns="http://www.w3.org/2000/svg" xmlns:xlink="http://www.w3.org/1999/xlink" x="0px" y="0px"
	 viewBox="0 0 460.689 460.689" style="enable-background:new 0 0 460.689 460.689;" xml:space="preserve">
<g>
	<path d="M340.491,17.067C340.491,7.64,332.842,0,323.428,0H137.259c-9.413,0-17.061,7.64-17.061,17.067v23.631h220.293V17.067z"/>
	<path d="M421.124,426.686h-37.053V78.838c0-9.428-7.648-17.068-17.063-17.068H93.679c-9.412,0-17.059,7.641-17.059,17.068v347.849
		H39.566c-9.414,0-17.06,7.642-17.06,17.069v16.934h143.189v-69.747c0-4.063,3.293-7.357,7.361-7.357h37.953
		c4.07,0,7.365,3.294,7.365,7.357v69.747h23.943v-69.747c0-4.063,3.293-7.357,7.361-7.357h37.955c4.068,0,7.363,3.294,7.363,7.357
		v69.747h143.188v-16.934C438.184,434.328,430.538,426.686,421.124,426.686z M164.737,363.779c0,4.063-3.293,7.355-7.363,7.355
		h-37.953c-4.071,0-7.363-3.292-7.363-7.355v-37.967c0-4.063,3.292-7.355,7.363-7.355h37.953c4.07,0,7.363,3.293,7.363,7.355
		V363.779z M164.737,287.156c0,4.065-3.293,7.355-7.363,7.355h-37.953c-4.071,0-7.363-3.291-7.363-7.355v-37.967
		c0-4.063,3.292-7.355,7.363-7.355h37.953c4.07,0,7.363,3.293,7.363,7.355V287.156z M164.737,210.533
		c0,4.063-3.293,7.355-7.363,7.355h-37.953c-4.071,0-7.363-3.292-7.363-7.355v-37.967c0-4.063,3.292-7.355,7.363-7.355h37.953
		c4.07,0,7.363,3.293,7.363,7.355V210.533z M164.737,133.91c0,4.064-3.293,7.355-7.363,7.355h-37.953
		c-4.071,0-7.363-3.292-7.363-7.355V95.943c0-4.063,3.292-7.356,7.363-7.356h37.953c4.07,0,7.363,3.294,7.363,7.356V133.91z
		 M256.684,363.779c0,4.063-3.293,7.355-7.363,7.355h-37.953c-4.07,0-7.361-3.292-7.361-7.355v-37.967
		c0-4.063,3.291-7.355,7.361-7.355h37.953c4.07,0,7.363,3.293,7.363,7.355V363.779z M256.684,287.156
		c0,4.065-3.293,7.355-7.363,7.355h-37.953c-4.07,0-7.361-3.291-7.361-7.355v-37.967c0-4.063,3.291-7.355,7.361-7.355h37.953
		c4.07,0,7.363,3.293,7.363,7.355V287.156z M256.684,210.533c0,4.063-3.293,7.355-7.363,7.355h-37.953
		c-4.07,0-7.361-3.292-7.361-7.355v-37.967c0-4.063,3.291-7.355,7.361-7.355h37.953c4.07,0,7.363,3.293,7.363,7.355V210.533z
		 M256.684,133.91c0,4.064-3.293,7.355-7.363,7.355h-37.953c-4.07,0-7.361-3.292-7.361-7.355V95.943
		c0-4.063,3.291-7.356,7.361-7.356h37.953c4.07,0,7.363,3.294,7.363,7.356V133.91z M348.632,363.779
		c0,4.063-3.293,7.355-7.363,7.355h-37.953c-4.07,0-7.361-3.292-7.361-7.355v-37.967c0-4.063,3.291-7.355,7.361-7.355h37.953
		c4.07,0,7.363,3.293,7.363,7.355V363.779z M348.632,287.156c0,4.065-3.293,7.355-7.363,7.355h-37.953
		c-4.07,0-7.361-3.291-7.361-7.355v-37.967c0-4.063,3.291-7.355,7.361-7.355h37.953c4.07,0,7.363,3.293,7.363,7.355V287.156z
		 M348.632,210.533c0,4.063-3.293,7.355-7.363,7.355h-37.953c-4.07,0-7.361-3.292-7.361-7.355v-37.967
		c0-4.063,3.291-7.355,7.361-7.355h37.953c4.07,0,7.363,3.293,7.363,7.355V210.533z M348.632,133.91
		c0,4.064-3.293,7.355-7.363,7.355h-37.953c-4.07,0-7.361-3.292-7.361-7.355V95.943c0-4.063,3.291-7.356,7.361-7.356h37.953
		c4.07,0,7.363,3.294,7.363,7.356V133.91z"/>
</g>
<g>
</g>
<g>
</g>
<g>
</g>
<g>
</g>
<g>
</g>
<g>
</g>
<g>
</g>
<g>
</g>
<g>
</g>
<g>
</g>
<g>
</g>
<g>
</g>
<g>
</g>
<g>
</g>
<g>
</g>
</svg>
